<?xml version="1.0" encoding="utf-8"?>
<!-- Generator: Adobe Illustrator 21.0.0, SVG Export Plug-In . SVG Version: 6.00 Build 0)  -->
<svg version="1.1" id="Calque_1" xmlns="http://www.w3.org/2000/svg" xmlns:xlink="http://www.w3.org/1999/xlink" x="0px" y="0px"
	 viewBox="0 0 150 158" enable-background="new 0 0 150 158" xml:space="preserve">
<g id="calendrier">
	<path d="M110.297,26.185H19.035v91.262c0,13.589,11.016,24.605,24.604,24.605h91.262V50.789
		C134.901,37.201,123.885,26.185,110.297,26.185z M125.246,132.396H45.345c-9.198,0-16.655-7.457-16.655-16.655V54.232h80.156
		c9.057,0,16.399,7.342,16.399,16.399V132.396z"/>
	<g>
		<path d="M84.957,40.438V21.274c0-5.405,4.396-9.803,9.802-9.803h13.935v19.164c0,5.405-4.397,9.803-9.803,9.803H84.957z"/>
		<path fill="#FFFFFF" d="M106.854,13.311v17.325c0,4.398-3.566,7.964-7.964,7.964H86.796V21.275c0-4.398,3.565-7.964,7.964-7.964
			H106.854 M110.532,9.633h-3.678H94.759c-6.419,0-11.642,5.223-11.642,11.642v17.325v3.678h3.678H98.89
			c6.419,0,11.642-5.223,11.642-11.642V13.311V9.633L110.532,9.633z"/>
	</g>
	<g>
		<path d="M45.875,40.438V21.274c0-5.405,4.397-9.803,9.803-9.803h13.934v19.164c0,5.405-4.397,9.803-9.803,9.803H45.875z"/>
		<path fill="#FFFFFF" d="M67.772,13.311v17.325c0,4.398-3.566,7.964-7.964,7.964H47.714V21.275c0-4.398,3.565-7.964,7.964-7.964
			H67.772 M71.451,9.633h-3.678H55.677c-6.419,0-11.642,5.223-11.642,11.642v17.325v3.678h3.678h12.095
			c6.419,0,11.642-5.223,11.642-11.642V13.311V9.633L71.451,9.633z"/>
	</g>
	<g>
		<rect x="37.886" y="68.368" width="21.036" height="21.036"/>
	</g>
	<g>
		<rect x="66.649" y="68.368" width="21.036" height="21.036"/>
	</g>
	<g>
		<rect x="94.554" y="68.368" width="21.036" height="21.036"/>
	</g>
	<g>
		<rect x="37.886" y="95.844" width="21.036" height="21.036"/>
	</g>
	<g>
		<rect x="66.649" y="95.844" width="21.036" height="21.036"/>
	</g>
	<g>
		<rect x="94.554" y="95.844" width="21.036" height="21.036"/>
	</g>
</g>
</svg>
